<svg width="32" height="34" viewBox="0 0 32 34" fill="none" xmlns="http://www.w3.org/2000/svg">
<path d="M32 18C32 26.8366 24.8366 34 16 34C7.16344 34 0 26.8366 0 18C0 9.16344 7.16344 2 16 2C24.8366 2 32 9.16344 32 18Z" fill="white"/>
<path d="M15.476 26.252C13.82 26.252 12.428 26.12 11.3 25.856C10.172 25.592 9.26 25.136 8.564 24.488C7.892 23.816 7.4 22.94 7.088 21.86C6.776 20.756 6.62 19.388 6.62 17.756C6.62 15.956 6.824 14.504 7.232 13.4C7.64 12.272 8.228 11.408 8.996 10.808C9.788 10.208 10.748 9.8 11.876 9.584C13.004 9.344 14.3 9.224 15.764 9.224C16.964 9.224 18.068 9.26 19.076 9.332C20.108 9.38 20.996 9.488 21.74 9.656C22.22 9.728 22.568 9.836 22.784 9.98C23.024 10.124 23.168 10.292 23.216 10.484C23.288 10.652 23.324 10.832 23.324 11.024V11.744C23.156 11.6 22.856 11.48 22.424 11.384C21.992 11.288 21.488 11.204 20.912 11.132C20.36 11.06 19.784 11 19.184 10.952C18.584 10.88 18.008 10.844 17.456 10.844C16.928 10.82 16.484 10.808 16.124 10.808C14.444 10.808 13.124 11.012 12.164 11.42C11.204 11.828 10.508 12.536 10.076 13.544C9.668 14.528 9.464 15.932 9.464 17.756C9.464 19.508 9.644 20.888 10.004 21.896C10.388 22.904 11.024 23.624 11.912 24.056C12.824 24.464 14.048 24.668 15.584 24.668C16.976 24.668 18.08 24.536 18.896 24.272C19.712 24.008 20.312 23.504 20.696 22.76C21.08 22.016 21.284 20.972 21.308 19.628C21.332 19.316 21.332 19.052 21.308 18.836C21.308 18.596 21.308 18.416 21.308 18.296H14.504C14.504 17.864 14.528 17.54 14.576 17.324C14.648 17.108 14.78 16.952 14.972 16.856C15.188 16.76 15.512 16.712 15.944 16.712H24.008V19.556C24.008 20.852 23.852 21.932 23.54 22.796C23.252 23.636 22.772 24.32 22.1 24.848C21.452 25.352 20.576 25.712 19.472 25.928C18.392 26.144 17.06 26.252 15.476 26.252Z" fill="url(#paint0_linear_186_16)"/>
<defs>
<linearGradient id="paint0_linear_186_16" x1="15.5" y1="0" x2="15.5" y2="30" gradientUnits="userSpaceOnUse">
<stop stop-color="#FF0000"/>
<stop offset="1" stop-color="#CB1010"/>
</linearGradient>
</defs>
</svg>
