<svg width="16" height="19" viewBox="0 0 16 19" fill="none" xmlns="http://www.w3.org/2000/svg">
<path d="M14.0525 6.69034C15.2243 6.06295 16 4.98161 16 3.75651C16 1.82198 14.0678 0.248413 11.6936 0.248413H4.30636C1.93216 0.248413 0 1.82198 0 3.75651C0 4.98161 0.77574 6.06295 1.9475 6.69034C0.77574 7.31774 0 8.39907 0 9.62417C0 10.8493 0.77574 11.9306 1.9475 12.558C0.77574 13.1846 0 14.266 0 15.4918C0 17.4264 1.94175 18.9999 4.32938 18.9999C6.74194 18.9999 8.70574 17.4092 8.70574 15.4536V12.2181C9.47093 12.7861 10.4874 13.1323 11.6006 13.1323H11.6936C14.0678 13.1323 16 11.5587 16 9.62417C16 8.39907 15.2243 7.31774 14.0525 6.69034ZM8.70478 1.39772H11.6936C13.2902 1.39772 14.5895 2.45562 14.5895 3.75651C14.5895 5.0574 13.2902 6.11608 11.6936 6.11608H8.70478V1.39772ZM1.41052 3.75651C1.41052 2.45562 2.70982 1.39772 4.30636 1.39772H7.29522V6.11608H4.30636C2.70982 6.11608 1.41052 5.0574 1.41052 3.75651ZM1.41052 9.62417C1.41052 8.32329 2.70982 7.26539 4.30636 7.26539H7.29522V11.9837H4.28815C2.70023 11.9751 1.41052 10.9196 1.41052 9.62417ZM7.29522 15.4536C7.29522 16.7755 5.96428 17.8506 4.32938 17.8506C2.72036 17.8506 1.41052 16.7927 1.41052 15.4918C1.41052 14.1909 2.70982 13.1323 4.30636 13.1323H7.29522V15.4536ZM11.6936 11.9837H11.6006C10.0041 11.9837 8.70574 10.9251 8.70574 9.62417C8.70574 8.32329 10.0041 7.26539 11.6006 7.26539H11.6936C13.2902 7.26539 14.5895 8.32329 14.5895 9.62417C14.5895 10.9251 13.2902 11.9837 11.6936 11.9837Z" fill="url(#paint0_linear_173_11)"/>
<defs>
<linearGradient id="paint0_linear_173_11" x1="8" y1="0.248413" x2="8" y2="18.9999" gradientUnits="userSpaceOnUse">
<stop stop-color="#FF0000"/>
<stop offset="1" stop-color="#CB1010"/>
</linearGradient>
</defs>
</svg>
