<svg xmlns="http://www.w3.org/2000/svg" width="33" height="30" fill="none"><path fill="url(#a)" fill-rule="evenodd" d="M16.0707 0C7.23511 0 .071411 6.88476.071411 15.3792c0 6.7951 4.583809 12.5597 10.940889 14.5936.8.1422 1.0933-.3332 1.0933-.7395 0-.3665-.0147-1.5776-.0214-2.8631-4.45044.9305-5.3904-1.8147-5.3904-1.8147-.72797-1.7776-1.77592-2.2505-1.77592-2.2505-1.45194-.9548.10932-.9343.10932-.9343 1.6066.1089 2.4519 1.5853 2.4519 1.5853 1.42661 2.3505 3.7425 1.6712 4.6558 1.2778.144-.9945.5587-1.6725 1.016-2.057-3.55322-.3883-7.28906-1.7071-7.28906-7.5999 0-1.6789.6253-3.0515 1.64926-4.128-.16666-.3883-.71464-1.95189.15466-4.07037 0 0 1.34395-.41268 4.40114 1.57636 1.276-.3409 2.6439-.51135 4.0038-.51776 1.36.00641 2.7293.17686 4.0079.51776 3.0532-1.99032 4.3958-1.57636 4.3958-1.57636.8706 2.11848.3226 3.68207.1573 4.07037 1.0253 1.0765 1.6466 2.4491 1.6466 4.128 0 5.9069-3.7425 7.2077-7.305 7.5884.5733.4767 1.0853 1.4136 1.0853 2.8477 0 2.0582-.0187 3.7141-.0187 4.2203 0 .4088.288.8894 1.0986.7382 6.3544-2.0365 10.9329-7.7985 10.9329-14.591C32.0701 6.88604 24.9064 0 16.0707 0Z" clip-rule="evenodd"/><defs><linearGradient id="a" x1="16.0714" x2="16.0714" y1="0" y2="30" gradientUnits="userSpaceOnUse"><stop stop-color="red"/><stop offset="1" stop-color="#CB1010"/></linearGradient></defs></svg>