<svg xmlns="http://www.w3.org/2000/svg" width="35" height="32" fill="none"><g filter="url(#a)"><path fill="url(#b)" d="M28.3693 24.7702h-4.5858v-6.3331c0-1.5104-.0305-3.4538-2.3851-3.4538-2.3882 0-2.7542 1.6449-2.7542 3.3448v6.4421h-4.5843V11.7461h4.4028v1.7794h.061c.8982-1.353 2.5666-2.1613 4.3433-2.1035 4.6483 0 5.5038 2.6966 5.5038 6.2027l-.0015 7.1455ZM8.88551 9.96549c-1.47013 0-2.66118-1.05037-2.66118-2.34686s1.19105-2.34687 2.66118-2.34687c1.47009 0 2.66119 1.05038 2.66119 2.34687s-1.1911 2.34686-2.66119 2.34686ZM11.1776 24.7702H6.58729V11.7461h4.59031v13.0241ZM30.6553 1.51679H4.28297C3.03702 1.50468 2.01525 2.3856 2 3.48439V26.8373c.01525 1.1002 1.03702 1.9811 2.28297 1.969H30.6553c1.249.0134 2.2753-.8675 2.2921-1.969V3.48304c-.0183-1.10148-1.0446-1.98239-2.2921-1.9676"/></g><defs><linearGradient id="b" x1="17.4737" x2="17.4737" y1="1.51526" y2="28.8064" gradientUnits="userSpaceOnUse"><stop stop-color="red"/><stop offset="1" stop-color="#CB1010"/></linearGradient><filter id="a" width="34.9474" height="31.2911" x="0" y=".515259" color-interpolation-filters="sRGB" filterUnits="userSpaceOnUse"><feFlood flood-opacity="0" result="BackgroundImageFix"/><feColorMatrix in="SourceAlpha" result="hardAlpha" values="0 0 0 0 0 0 0 0 0 0 0 0 0 0 0 0 0 0 127 0"/><feOffset dy="1"/><feGaussianBlur stdDeviation="1"/><feComposite in2="hardAlpha" operator="out"/><feColorMatrix values="0 0 0 0 0 0 0 0 0 0 0 0 0 0 0 0 0 0 0.25 0"/><feBlend in2="BackgroundImageFix" result="effect1_dropShadow_42_137"/><feBlend in="SourceGraphic" in2="effect1_dropShadow_42_137" result="shape"/></filter></defs></svg>