<svg width="22" height="24" viewBox="0 0 22 24" fill="none" xmlns="http://www.w3.org/2000/svg">
<g filter="url(#filter0_d_42_149)">
<path d="M15 15.1667C15.2652 15.1667 15.5196 15.2545 15.7071 15.4107C15.8946 15.567 16 15.779 16 16C16 16.221 15.8946 16.433 15.7071 16.5893C15.5196 16.7455 15.2652 16.8333 15 16.8333H14C13.7348 16.8333 13.4804 16.7455 13.2929 16.5893C13.1053 16.433 13 16.221 13 16C13 15.779 13.1053 15.567 13.2929 15.4107C13.4804 15.2545 13.7348 15.1667 14 15.1667H15ZM13 13.5C12.7348 13.5 12.4804 13.4122 12.2929 13.2559C12.1053 13.0996 12 12.8877 12 12.6667V11.8333H9.99999V12.6667C9.99999 12.8877 9.89464 13.0996 9.7071 13.2559C9.51956 13.4122 9.26521 13.5 8.99999 13.5C8.73478 13.5 8.48042 13.4122 8.29289 13.2559C8.10535 13.0996 8 12.8877 8 12.6667V9.33334C8 8.6703 8.31606 8.03442 8.87867 7.56558C9.44128 7.09673 10.2043 6.83334 11 6.83334C11.7956 6.83334 12.5587 7.09673 13.1213 7.56558C13.6839 8.03442 14 8.6703 14 9.33334V12.6667C14 12.8877 13.8946 13.0996 13.7071 13.2559C13.5196 13.4122 13.2652 13.5 13 13.5ZM12 10.1667V9.33334C12 9.11233 11.8946 8.90037 11.7071 8.74409C11.5196 8.58781 11.2652 8.50001 11 8.50001C10.7348 8.50001 10.4804 8.58781 10.2929 8.74409C10.1054 8.90037 9.99999 9.11233 9.99999 9.33334V10.1667H12ZM10.289 14.5833L8.67699 15.9417C8.63184 15.9795 8.57099 16.0015 8.50699 16.003C8.44298 16.0046 8.38071 15.9856 8.333 15.95L7.717 15.4167C7.53134 15.2582 7.27776 15.1677 7.01202 15.165C6.74628 15.1624 6.49016 15.2478 6.3 15.4025C6.10984 15.5572 6.00121 15.7685 5.99803 15.99C5.99484 16.2114 6.09735 16.4249 6.283 16.5833L6.909 17.12C7.33177 17.4716 7.90468 17.6691 8.50199 17.6691C9.09931 17.6691 9.67222 17.4716 10.095 17.12L11.711 15.75C11.8764 15.5898 11.9627 15.3832 11.9522 15.172C11.9417 14.9608 11.8353 14.7609 11.6546 14.6126C11.4739 14.4643 11.2323 14.3788 10.9787 14.3734C10.7252 14.3679 10.4786 14.443 10.289 14.5833ZM20 6.54751V16.8333C19.9984 17.938 19.4711 18.997 18.5338 19.7782C17.5964 20.5593 16.3256 20.9987 15 21H7C5.6744 20.9987 4.40356 20.5593 3.46622 19.7782C2.52888 18.997 2.00159 17.938 2 16.8333V5.16668C2.00159 4.06202 2.52888 3.00298 3.46622 2.22186C4.40356 1.44075 5.6744 1.00134 7 1.00001H13.343C14 0.998605 14.6508 1.10578 15.2577 1.31533C15.8647 1.52489 16.4157 1.83266 16.879 2.22085L18.535 3.60085C19.0008 3.98691 19.3701 4.44613 19.6216 4.95192C19.8731 5.45771 20.0017 6.00003 20 6.54751ZM15.465 3.39918C15.3229 3.28139 15.1671 3.1756 15 3.08335V5.16668H17.5C17.389 5.02738 17.2617 4.89758 17.12 4.77918L15.465 3.39918ZM18 6.83334H15C14.4696 6.83334 13.9609 6.65775 13.5858 6.34519C13.2107 6.03263 13 5.6087 13 5.16668V2.66668H7C6.20435 2.66668 5.44129 2.93007 4.87868 3.39891C4.31607 3.86775 4 4.50364 4 5.16668V16.8333C4 17.4964 4.31607 18.1323 4.87868 18.6011C5.44129 19.0699 6.20435 19.3333 7 19.3333H15C15.7956 19.3333 16.5587 19.0699 17.1213 18.6011C17.6839 18.1323 18 17.4964 18 16.8333V6.83334Z" fill="url(#paint0_linear_42_149)"/>
</g>
<defs>
<filter id="filter0_d_42_149" x="0" y="0" width="22" height="24" filterUnits="userSpaceOnUse" color-interpolation-filters="sRGB">
<feFlood flood-opacity="0" result="BackgroundImageFix"/>
<feColorMatrix in="SourceAlpha" type="matrix" values="0 0 0 0 0 0 0 0 0 0 0 0 0 0 0 0 0 0 127 0" result="hardAlpha"/>
<feOffset dy="1"/>
<feGaussianBlur stdDeviation="1"/>
<feComposite in2="hardAlpha" operator="out"/>
<feColorMatrix type="matrix" values="0 0 0 0 0 0 0 0 0 0 0 0 0 0 0 0 0 0 0.25 0"/>
<feBlend mode="normal" in2="BackgroundImageFix" result="effect1_dropShadow_42_149"/>
<feBlend mode="normal" in="SourceGraphic" in2="effect1_dropShadow_42_149" result="shape"/>
</filter>
<linearGradient id="paint0_linear_42_149" x1="11" y1="1" x2="11" y2="21" gradientUnits="userSpaceOnUse">
<stop stop-color="#FF0000"/>
<stop offset="1" stop-color="#CB1010"/>
</linearGradient>
</defs>
</svg>
