<svg xmlns="http://www.w3.org/2000/svg" width="28" height="28" fill="none"><g clip-path="url(#a)" filter="url(#b)"><path fill="url(#c)" d="M14.9999 2.00013c0-.26521.1053-.51957.2929-.7071.1875-.18754.4419-.2929.7071-.2929 2.6512.00291 5.1931 1.05742 7.0678 2.93215 1.8748 1.87473 2.9293 4.41658 2.9322 7.06782 0 .2653-.1054.5196-.2929.7071-.1876.1876-.4419.2929-.7071.2929-.2653 0-.5196-.1053-.7071-.2929-.1876-.1875-.2929-.4418-.2929-.7071-.0024-2.12097-.846-4.15442-2.3458-5.65419-1.4998-1.49978-3.5332-2.3434-5.6542-2.34578-.2652 0-.5196-.10535-.7071-.29289-.1876-.18754-.2929-.44189-.2929-.70711Zm1 5c1.0608 0 2.0783.42143 2.8284 1.17158.7501.75014 1.1716 1.76756 1.1716 2.82839 0 .2653.1053.5196.2929.7071.1875.1876.4419.2929.7071.2929.2652 0 .5195-.1053.7071-.2929.1875-.1875.2929-.4418.2929-.7071-.0016-1.59078-.6343-3.11598-1.7591-4.24085-1.1249-1.12488-2.6501-1.75753-4.2409-1.75912-.2652 0-.5196.10536-.7071.2929-.1876.18753-.2929.44189-.2929.7071 0 .26522.1053.51957.2929.70711.1875.18754.4419.29289.7071.29289Zm9.093 10.73897c.5795.5811.9049 1.3683.9049 2.189s-.3254 1.6079-.9049 2.189l-.91 1.049c-8.19 7.841-28.12-12.084-20.40001-20.29997l1.15-1c.58177-.56332 1.36193-.874949 2.1717-.867463.80977.007483 1.58404.333483 2.1553.907463.031.031 1.88401 2.438 1.88401 2.438.5498.57763.8559 1.34493.8546 2.14241-.0013.79747-.3099 1.56377-.8616 2.13959L9.97888 10.0821c.64082 1.5571 1.58302 2.9723 2.77252 4.1641 1.1894 1.1919 2.6027 2.1369 4.1585 2.7809l1.465-1.165c.5759-.5513 1.342-.8595 2.1393-.8606.7972-.0011 1.5642.305 2.1417.8546 0 0 2.406 1.852 2.437 1.883Zm-1.376 1.454s-2.393-1.841-2.424-1.872c-.206-.2042-.4844-.3188-.7745-.3188-.2901 0-.5685.1146-.7745.3188-.027.028-2.044 1.635-2.044 1.635-.1359.1082-.2977.1791-.4694.2058-.1716.0266-.3473.0081-.5096-.0538a15.007592 15.007592 0 0 1-5.3682-3.4449c-1.52188-1.5196-2.69941-3.3486-3.45281-5.3631-.0668-.1645-.08858-.34388-.0631-.51963a.99996.99996 0 0 1 .2081-.48034s1.607-2.018 1.63399-2.044c.20427-.20601.31888-.48438.31888-.7745 0-.29011-.11461-.56848-.31888-.7745-.031-.03-1.87199-2.425-1.87199-2.425-.2091-.18749-.482-.2879-.76275-.28065-.28076.00725-.54811.12162-.74725.31965l-1.15 1C-.495103 11.1051 16.7759 27.4181 22.7209 21.8001l.911-1.05c.2134-.1977.3417-.4707.3575-.7613.0159-.2905-.0818-.5759-.2725-.7957Z"/></g><defs><linearGradient id="c" x1="14.0194" x2="14.0194" y1=".998535" y2="24.9591" gradientUnits="userSpaceOnUse"><stop stop-color="red"/><stop offset="1" stop-color="#CB1010"/></linearGradient><clipPath id="a"><path fill="#fff" d="M2 1h24v24H2z"/></clipPath><filter id="b" width="28" height="28" x="0" y="0" color-interpolation-filters="sRGB" filterUnits="userSpaceOnUse"><feFlood flood-opacity="0" result="BackgroundImageFix"/><feColorMatrix in="SourceAlpha" result="hardAlpha" values="0 0 0 0 0 0 0 0 0 0 0 0 0 0 0 0 0 0 127 0"/><feOffset dy="1"/><feGaussianBlur stdDeviation="1"/><feComposite in2="hardAlpha" operator="out"/><feColorMatrix values="0 0 0 0 0 0 0 0 0 0 0 0 0 0 0 0 0 0 0.25 0"/><feBlend in2="BackgroundImageFix" result="effect1_dropShadow_52_127"/><feBlend in="SourceGraphic" in2="effect1_dropShadow_52_127" result="shape"/></filter></defs></svg>