<svg width="24" height="24" viewBox="0 0 24 24" fill="none" xmlns="http://www.w3.org/2000/svg">
<g clip-path="url(#clip0_48_60)" filter="url(#filter0_d_48_60)">
<path d="M21.2499 1.74976C20.7635 1.28645 20.1175 1.02802 19.4458 1.02802C18.774 1.02802 18.128 1.28645 17.6416 1.74976L8.30243 11.0831C8.01189 11.0272 7.71664 10.9993 7.42077 10.9997C6.81927 10.998 6.2234 11.1156 5.66768 11.3458C5.11195 11.576 4.60741 11.9141 4.18327 12.3406C3.0566 13.4681 2.2616 16.4931 2.02577 18.1356C1.97345 18.4909 1.99831 18.8533 2.09864 19.1982C2.19898 19.543 2.37245 19.8622 2.60723 20.134C2.84201 20.4058 3.1326 20.6238 3.4592 20.7732C3.78581 20.9226 4.14078 20.9999 4.49993 20.9997C4.62233 20.9998 4.74459 20.9912 4.86577 20.9739C6.50827 20.7381 9.53243 19.9431 10.6608 18.8164C11.1906 18.2851 11.5817 17.6317 11.7996 16.9137C12.0176 16.1957 12.0558 15.4351 11.9108 14.6989L21.2499 5.35809C21.7272 4.87892 21.9951 4.2302 21.9951 3.55392C21.9951 2.87765 21.7272 2.22893 21.2499 1.74976ZM9.48077 17.6381C8.8766 18.2422 6.5641 19.0456 4.62743 19.3239C4.498 19.3426 4.366 19.331 4.2418 19.2901C4.11759 19.2492 4.00457 19.18 3.9116 19.0881C3.81896 18.9956 3.74941 18.8826 3.70858 18.7582C3.66775 18.6339 3.6568 18.5016 3.6766 18.3722C3.9541 16.4364 4.75993 14.1222 5.3616 13.5189C5.9168 13.0189 6.64274 12.751 7.38968 12.7705C8.13662 12.79 8.84758 13.0954 9.37593 13.6238C9.90427 14.1521 10.2097 14.8631 10.2292 15.61C10.2487 16.3569 9.98081 17.0829 9.48077 17.6381ZM20.0733 4.17976L11.2224 13.0314C10.8936 12.5335 10.4686 12.1062 9.97243 11.7747L18.8199 2.92643C18.9883 2.76566 19.2121 2.67595 19.4449 2.67595C19.6777 2.67595 19.9016 2.76566 20.0699 2.92643C20.1526 3.00842 20.2183 3.10592 20.2632 3.21333C20.3081 3.32075 20.3314 3.43597 20.3317 3.5524C20.332 3.66883 20.3093 3.78417 20.265 3.89183C20.2206 3.99948 20.1555 4.09733 20.0733 4.17976Z" fill="url(#paint0_linear_48_60)"/>
</g>
<defs>
<filter id="filter0_d_48_60" x="0" y="6.10352e-05" width="24" height="24" filterUnits="userSpaceOnUse" color-interpolation-filters="sRGB">
<feFlood flood-opacity="0" result="BackgroundImageFix"/>
<feColorMatrix in="SourceAlpha" type="matrix" values="0 0 0 0 0 0 0 0 0 0 0 0 0 0 0 0 0 0 127 0" result="hardAlpha"/>
<feOffset dy="1"/>
<feGaussianBlur stdDeviation="1"/>
<feComposite in2="hardAlpha" operator="out"/>
<feColorMatrix type="matrix" values="0 0 0 0 0 0 0 0 0 0 0 0 0 0 0 0 0 0 0.25 0"/>
<feBlend mode="normal" in2="BackgroundImageFix" result="effect1_dropShadow_48_60"/>
<feBlend mode="normal" in="SourceGraphic" in2="effect1_dropShadow_48_60" result="shape"/>
</filter>
<linearGradient id="paint0_linear_48_60" x1="11.9971" y1="1.02802" x2="11.9971" y2="20.9997" gradientUnits="userSpaceOnUse">
<stop stop-color="#FF0000"/>
<stop offset="1" stop-color="#CB1010"/>
</linearGradient>
<clipPath id="clip0_48_60">
<rect width="20" height="20" fill="white" transform="translate(2 1.00006)"/>
</clipPath>
</defs>
</svg>
