<svg xmlns="http://www.w3.org/2000/svg" width="32" height="28" fill="none"><path fill="url(#a)" fill-rule="evenodd" d="M27.339 4.06933C24.3299 1.44667 20.3294.001167 16.0677 0 7.28558 0 .137995 6.223.133975 13.874.132636 16.3193.86682 18.7063 2.2615 20.811L0 28l8.4458-1.9297c2.3272 1.106 4.9477 1.6882 7.6138 1.6894h.0067c8.7808 0 15.9297-6.2242 15.9337-13.8752.0027-3.7065-1.6533-7.19367-4.661-9.81517ZM16.0677 25.4158h-.0054c-2.3767 0-4.7066-.5565-6.7403-1.6076l-.48365-.2497-5.01202 1.1445 1.33842-4.256-.31484-.4363c-1.32636-1.8364-2.02571-3.9585-2.02437-6.1367C2.82822 7.51567 8.77002 2.34267 16.0744 2.34267c3.5369 0 6.8622 1.20166 9.3621 3.381 2.5 2.1805 3.876 5.07733 3.8746 8.15853-.004 6.3606-5.9445 11.5336-13.2434 11.5336Zm7.2641-8.6368c-.3979-.1738-2.3553-1.0127-2.721-1.1282-.3645-.1155-.6297-.1738-.8963.1727-.2666.3465-1.0276 1.1282-1.2607 1.3603-.2318.231-.4649.2602-.8628.0864-.398-.1739-1.6814-.539-3.2021-1.7209-1.183-.9193-1.9828-2.0545-2.2146-2.4021-.2317-.3477-.0241-.5344.1742-.707.1795-.1552.3979-.4049.5975-.6079.201-.2006.2666-.3453.4006-.5775.1327-.231.067-.434-.0335-.6078-.1005-.1727-.8963-1.8795-1.2272-2.57367-.3229-.67666-.6511-.5845-.8963-.595-.2318-.0105-.497-.01166-.7636-.01166-.2653 0-.69671.08633-1.06113.434-.36441.34766-1.39334 1.1865-1.39334 2.89213 0 1.7069 1.42684 3.3554 1.62512 3.5864.19828.231 2.80675 3.7333 6.80055 5.2348.9499.357 1.6921.5705 2.2696.7303.9539.2637 1.822.2264 2.508.1377.765-.0992 2.3553-.8388 2.6875-1.6485.3323-.8097.3323-1.505.2318-1.6485-.0991-.1458-.3644-.2322-.7623-.406Z" clip-rule="evenodd"/><defs><linearGradient id="a" x1="16" x2="16" y1="0" y2="28" gradientUnits="userSpaceOnUse"><stop stop-color="red"/><stop offset="1" stop-color="#CB1010"/></linearGradient></defs></svg>