<svg xmlns="http://www.w3.org/2000/svg" width="83" height="22" fill="none"><path fill="#161616" d="M11.56 21.24c-2.027 0-3.747-.133-5.16-.4-1.387-.267-2.533-.747-3.44-1.44-.88-.72-1.52-1.68-1.92-2.88-.4-1.227-.6-2.773-.6-4.64 0-2.053.267-3.707.8-4.96.533-1.253 1.293-2.2 2.28-2.84.987-.667 2.173-1.107 3.56-1.32 1.387-.24 2.947-.36 4.68-.36 1.707 0 3.24.04 4.6.12 1.387.053 2.467.16 3.24.32.64.107 1.107.28 1.4.52.32.24.52.507.6.8.08.293.12.587.12.88v1.32c-.16-.187-.533-.347-1.12-.48a15.84 15.84 0 0 0-1.96-.32 75.24 75.24 0 0 0-4.48-.32 41.566 41.566 0 0 0-1.56-.04c-1.653 0-2.973.187-3.96.56-.96.347-1.653 1-2.08 1.96-.427.96-.64 2.347-.64 4.16 0 1.707.187 3.04.56 4 .4.933 1.04 1.587 1.92 1.96.88.373 2.04.56 3.48.56 1.333 0 2.387-.12 3.16-.36.773-.24 1.333-.667 1.68-1.28s.533-1.453.56-2.52v-1.2H10.2c0-.747.04-1.32.12-1.72.107-.4.333-.68.68-.84.373-.187.947-.28 1.72-.28h9.72v3.96c0 1.307-.16 2.413-.48 3.32-.32.907-.88 1.64-1.68 2.2-.8.533-1.92.933-3.36 1.2-1.413.24-3.2.36-5.36.36Zm22.006-.04c-1.76 0-3.187-.067-4.28-.2-1.094-.107-1.934-.333-2.52-.68a2.814 2.814 0 0 1-1.2-1.52c-.214-.64-.32-1.453-.32-2.44 0-1.36.146-2.4.44-3.12.293-.72.786-1.2 1.48-1.44.72-.267 1.68-.4 2.88-.4.666 0 1.413.013 2.24.04.853 0 1.68.013 2.48.04.8.027 1.493.08 2.08.16.613.053 1.026.107 1.24.16 0-.96-.08-1.72-.24-2.28-.16-.56-.427-.987-.8-1.28-.374-.293-.854-.48-1.44-.56-.56-.08-1.24-.12-2.04-.12-.907 0-1.827.027-2.76.08-.907.027-1.774.093-2.6.2-.8.08-1.507.2-2.12.36v-.92c0-.667.16-1.147.48-1.44.32-.32.733-.533 1.24-.64.586-.133 1.44-.227 2.56-.28 1.146-.053 2.36-.08 3.64-.08 1.653 0 3.04.08 4.16.24 1.12.16 2.013.48 2.68.96.693.48 1.186 1.187 1.48 2.12.293.907.44 2.133.44 3.68v8.08c-.32.453-1.254.787-2.8 1-1.52.187-3.654.28-6.4.28Zm-.04-2.08c.906 0 1.653-.013 2.24-.04.613-.053 1.106-.133 1.48-.24.373-.107.653-.24.84-.4v-4.96c-.267-.08-.694-.147-1.28-.2-.56-.08-1.134-.133-1.72-.16-.587-.053-1.08-.08-1.48-.08-.8 0-1.454.067-1.96.2-.507.107-.88.373-1.12.8-.214.427-.32 1.093-.32 2 0 .72.08 1.32.24 1.8.16.453.48.787.96 1 .48.187 1.186.28 2.12.28Zm21.145 2.04c-1.707 0-3.107-.093-4.2-.28-1.094-.187-1.934-.547-2.52-1.08-.587-.533-1-1.32-1.24-2.36-.214-1.04-.32-2.427-.32-4.16L46.35.8h4.8v4.36c.133 0 .373-.013.72-.04.373-.027.8-.04 1.28-.04.506-.027 1.013-.04 1.52-.04.506-.027.973-.04 1.4-.04 2 0 3.546.253 4.64.76 1.093.507 1.853 1.36 2.28 2.56.453 1.173.68 2.76.68 4.76 0 1.893-.187 3.387-.56 4.48-.374 1.067-.934 1.867-1.68 2.4-.747.507-1.694.84-2.84 1-1.12.133-2.427.2-3.92.2Zm.04-2.64c1.12 0 1.96-.12 2.52-.36.586-.267.986-.8 1.2-1.6.24-.8.36-2.027.36-3.68 0-1.333-.134-2.373-.4-3.12-.267-.747-.694-1.28-1.28-1.6-.56-.32-1.32-.48-2.28-.48h-.96c-.374 0-.747.013-1.12.04-.374 0-.707.013-1 .04h-.56v6.16c0 .987.04 1.787.12 2.4.08.613.24 1.08.48 1.4.24.32.586.533 1.04.64.48.107 1.106.16 1.88.16Zm16.542 2.64c-1.573 0-2.667-.333-3.28-1-.587-.693-.88-1.773-.88-3.24V5.04h4.88v11.64c0 .933.12 1.587.36 1.96.24.347.666.52 1.28.52.293 0 .573-.027.84-.08.266-.053.44-.093.52-.12v1.84c-.107.027-.293.067-.56.12-.267.053-.653.107-1.16.16-.507.053-1.174.08-2 .08Zm-1.68-18.2c-.773 0-1.333-.093-1.68-.28-.347-.213-.52-.6-.52-1.16 0-.56.173-.947.52-1.16.373-.213.947-.32 1.72-.32.773.027 1.32.147 1.64.36.347.187.507.56.48 1.12 0 .56-.16.947-.48 1.16-.32.187-.88.28-1.68.28Z"/><path fill="#BC0F0F" d="M77.73 19.44c0-.747.24-1.213.72-1.4.506-.187 1.12-.28 1.84-.28s1.292.093 1.72.28c.426.187.64.653.64 1.4 0 .507-.108.88-.32 1.12-.214.213-.508.36-.88.44-.348.053-.76.08-1.24.08-.454 0-.868-.027-1.24-.08-.374-.08-.68-.227-.92-.44-.214-.24-.32-.613-.32-1.12Z"/></svg>